name Walk6.mot
datacolumns 19
datarows 12
range 2.04000000 2.09500000
endheader

                time	   L_ground_force_vx	   L_ground_force_vy	   L_ground_force_vz	   L_ground_force_px	   L_ground_force_py	   L_ground_force_pz	   R_ground_force_vx	   R_ground_force_vy	   R_ground_force_vz	   R_ground_force_px	   R_ground_force_py	   R_ground_force_pz	   L_ground_torque_x	   L_ground_torque_y	   L_ground_torque_z	   R_ground_torque_x	   R_ground_torque_y	   R_ground_torque_z	
          2.04000000	        -33.34707360	        544.67739309	         18.29959417	          0.51226015	          0.00000000	          0.24235412	          0.00322613	         -0.00419456	          0.00173536	         -0.00002304	          0.00000000	          0.00012857	          0.00000000	         -0.99417095	          0.00000000	          0.00000000	          0.00004870	          0.00000000	
          2.04500000	        -31.52503133	        538.32710711	         18.64644037	          0.51440143	          0.00000000	          0.24212454	         -0.00222354	         -0.01396829	          0.00087135	         -0.00001362	          0.00000000	          0.00008362	          0.00000000	         -1.05718386	          0.00000000	          0.00000000	          0.00005788	          0.00000000	
          2.05000000	        -29.84230854	        533.21288094	         19.32610740	          0.51653577	          0.00000000	          0.24186151	         -0.00554246	         -0.01913128	          0.00024836	         -0.00000651	          0.00000000	          0.00004818	          0.00000000	         -1.10135661	          0.00000000	          0.00000000	          0.00005918	          0.00000000	
          2.05500000	        -28.24775485	        529.38035146	         20.30067905	          0.51864709	          0.00000000	          0.24157103	         -0.00723247	         -0.02092915	         -0.00017079	         -0.00000143	          0.00000000	          0.00002164	          0.00000000	         -1.12842753	          0.00000000	          0.00000000	          0.00005534	          0.00000000	
          2.06000000	        -26.68973120	        526.87623081	         21.50730861	          0.52071576	          0.00000000	          0.24126197	         -0.00774424	         -0.02042684	         -0.00042608	          0.00000194	          0.00000000	          0.00000291	          0.00000000	         -1.14234527	          0.00000000	          0.00000000	          0.00004850	          0.00000000	
          2.06500000	        -25.12166238	        525.73974546	         22.86069714	          0.52272063	          0.00000000	          0.24094423	         -0.00745995	         -0.01848921	         -0.00055609	          0.00000395	          0.00000000	         -0.00000933	          0.00000000	         -1.14892001	          0.00000000	          0.00000000	          0.00004027	          0.00000000	
          2.07000000	        -23.50641422	        525.99557719	         24.25932628	          0.52464220	          0.00000000	          0.24062785	         -0.00668765	         -0.01578437	         -0.00059549	          0.00000492	          0.00000000	         -0.00001645	          0.00000000	         -1.15531189	          0.00000000	          0.00000000	          0.00003181	          0.00000000	
          2.07500000	        -21.81866735	        527.65219187	         25.59285988	          0.52646496	          0.00000000	          0.24032253	         -0.00566348	         -0.01280146	         -0.00057365	          0.00000516	          0.00000000	         -0.00001971	          0.00000000	         -1.16988704	          0.00000000	          0.00000000	          0.00002387	          0.00000000	
          2.08000000	        -20.04329504	        530.69723961	         26.75311813	          0.52817897	          0.00000000	          0.24003697	         -0.00455879	         -0.00987613	         -0.00051428	          0.00000490	          0.00000000	         -0.00002024	          0.00000000	         -1.20111174	          0.00000000	          0.00000000	          0.00001689	          0.00000000	
          2.08500000	        -18.17081001	        535.09501388	         27.64734855	          0.52978204	          0.00000000	          0.23977865	         -0.00348982	         -0.00721909	         -0.00043554	          0.00000435	          0.00000000	         -0.00001898	          0.00000000	         -1.25608776	          0.00000000	          0.00000000	          0.00001108	          0.00000000	
          2.09000000	        -16.19477711	        540.79064443	         28.21008685	          0.53127846	          0.00000000	          0.23955263	         -0.00252831	         -0.00494424	         -0.00035059	          0.00000365	          0.00000000	         -0.00001667	          0.00000000	         -1.33919383	          0.00000000	          0.00000000	          0.00000648	          0.00000000	
          2.09500000	        -14.11107233	        547.71078678	         28.41189225	          0.53267803	          0.00000000	          0.23936102	         -0.00171176	         -0.00309440	         -0.00026839	          0.00000291	          0.00000000	         -0.00001387	          0.00000000	         -1.45108688	          0.00000000	          0.00000000	          0.00000301	          0.00000000	
